STARTFONT 2.1
COMMENT  
COMMENT  WARNING:  This bdf file was generated from an X server using
COMMENT  xbdfdump.  The resulting font is subject to the same copyright,
COMMENT  license, and trademark restrictions as the original font.  The
COMMENT  author and distributors of xbdfdump disclaim all liability for
COMMENT  misuse of the program or its output.
COMMENT  
FONT -phaisarn-angsana-medium-r-normal--12-120-75-75-p-75-tis620-0
SIZE 12 75 75
FONTBOUNDINGBOX 28 33 -9 -10
STARTPROPERTIES 27
FOUNDRY "Phaisarn"
FAMILY_NAME "Angsana"
WEIGHT_NAME "medium"
SLANT "r"
SETWIDTH_NAME "normal"
ADD_STYLE_NAME ""
PIXEL_SIZE 12
POINT_SIZE 120
RESOLUTION_X 75
RESOLUTION_Y 75
SPACING "p"
AVERAGE_WIDTH 75
CHARSET_REGISTRY "tis620"
CHARSET_ENCODING "0"
COPYRIGHT "Angsana by Pt-TITech 1997"
RAW_PIXELSIZE 1000
RAW_POINTSIZE 723
RAW_ASCENT 736
RAW_DESCENT 0
RAW_AVERAGE_WIDTH 2994
FACE_NAME "Angsana"
WEIGHT 10
X_HEIGHT 7
QUAD_WIDTH 10
FONT_ASCENT 20
FONT_DESCENT 10
_XMBDFED_INFO "Edited with xmbdfed 4.5."
ENDPROPERTIES
CHARS 195
STARTCHAR space
ENCODING 32
SWIDTH 320 0
DWIDTH 4 0
BBX 0 0 0 0
BITMAP
ENDCHAR
STARTCHAR exclam
ENCODING 33
SWIDTH 400 0
DWIDTH 5 0
BBX 2 11 2 0
BITMAP
C0
C0
C0
C0
C0
40
40
40
00
C0
C0
ENDCHAR
STARTCHAR quotedbl
ENCODING 34
SWIDTH 560 0
DWIDTH 7 0
BBX 5 5 1 6
BITMAP
D8
D8
D8
D8
48
ENDCHAR
STARTCHAR numbersign
ENCODING 35
SWIDTH 640 0
DWIDTH 8 0
BBX 7 11 1 0
BITMAP
12
12
24
FE
24
24
48
FE
48
48
90
ENDCHAR
STARTCHAR dollar
ENCODING 36
SWIDTH 640 0
DWIDTH 8 0
BBX 6 12 1 -1
BITMAP
10
78
94
94
50
30
18
14
94
94
78
10
ENDCHAR
STARTCHAR percent
ENCODING 37
SWIDTH 1040 0
DWIDTH 13 0
BBX 12 11 1 0
BITMAP
6040
9040
9080
9100
9200
6260
0490
0490
0890
1090
2060
ENDCHAR
STARTCHAR ampersand
ENCODING 38
SWIDTH 960 0
DWIDTH 12 0
BBX 11 11 1 0
BITMAP
3000
4800
4800
6800
31C0
3080
5900
CD00
C600
C620
79C0
ENDCHAR
STARTCHAR apostrophe
ENCODING 39
SWIDTH 240 0
DWIDTH 3 0
BBX 2 5 1 6
BITMAP
C0
C0
C0
C0
40
ENDCHAR
STARTCHAR parenleft
ENCODING 40
SWIDTH 400 0
DWIDTH 5 0
BBX 5 14 1 -3
BITMAP
10
20
20
40
40
C0
C0
C0
C0
40
40
20
20
10
ENDCHAR
STARTCHAR parenright
ENCODING 41
SWIDTH 400 0
DWIDTH 5 0
BBX 4 14 1 -3
BITMAP
80
40
40
20
20
30
30
30
30
20
20
40
40
80
ENDCHAR
STARTCHAR asterisk
ENCODING 42
SWIDTH 640 0
DWIDTH 8 0
BBX 7 6 1 5
BITMAP
10
D6
7C
7C
D6
10
ENDCHAR
STARTCHAR plus
ENCODING 43
SWIDTH 720 0
DWIDTH 9 0
BBX 7 7 1 2
BITMAP
10
10
10
FE
10
10
10
ENDCHAR
STARTCHAR comma
ENCODING 44
SWIDTH 320 0
DWIDTH 4 0
BBX 2 5 1 -3
BITMAP
80
C0
40
40
80
ENDCHAR
STARTCHAR minus
ENCODING 45
SWIDTH 400 0
DWIDTH 5 0
BBX 4 1 1 3
BITMAP
F0
ENDCHAR
STARTCHAR period
ENCODING 46
SWIDTH 320 0
DWIDTH 4 0
BBX 2 2 1 0
BITMAP
C0
C0
ENDCHAR
STARTCHAR slash
ENCODING 47
SWIDTH 320 0
DWIDTH 4 0
BBX 4 11 0 0
BITMAP
10
10
10
20
20
20
40
40
40
80
80
ENDCHAR
STARTCHAR 0
ENCODING 48
SWIDTH 640 0
DWIDTH 8 0
BBX 6 11 1 0
BITMAP
30
48
48
84
84
84
84
84
48
48
30
ENDCHAR
STARTCHAR 1
ENCODING 49
SWIDTH 640 0
DWIDTH 8 0
BBX 5 11 2 0
BITMAP
60
A0
20
20
20
20
20
20
20
20
F8
ENDCHAR
STARTCHAR 2
ENCODING 50
SWIDTH 640 0
DWIDTH 8 0
BBX 7 11 1 0
BITMAP
78
4C
84
04
04
08
08
10
20
42
FC
ENDCHAR
STARTCHAR 3
ENCODING 51
SWIDTH 640 0
DWIDTH 8 0
BBX 6 11 1 0
BITMAP
70
88
08
08
10
38
0C
04
04
88
F0
ENDCHAR
STARTCHAR 4
ENCODING 52
SWIDTH 640 0
DWIDTH 8 0
BBX 7 11 0 0
BITMAP
04
0C
14
14
24
44
84
FE
04
04
04
ENDCHAR
STARTCHAR 5
ENCODING 53
SWIDTH 640 0
DWIDTH 8 0
BBX 6 11 1 0
BITMAP
3C
40
40
F0
18
0C
04
04
04
88
F0
ENDCHAR
STARTCHAR 6
ENCODING 54
SWIDTH 640 0
DWIDTH 8 0
BBX 6 11 1 0
BITMAP
18
20
40
80
B8
CC
84
84
44
28
10
ENDCHAR
STARTCHAR 7
ENCODING 55
SWIDTH 640 0
DWIDTH 8 0
BBX 6 11 1 0
BITMAP
7C
84
04
08
08
08
10
10
10
20
20
ENDCHAR
STARTCHAR 8
ENCODING 56
SWIDTH 640 0
DWIDTH 8 0
BBX 6 11 1 0
BITMAP
38
44
84
C4
68
38
4C
84
84
44
78
ENDCHAR
STARTCHAR 9
ENCODING 57
SWIDTH 640 0
DWIDTH 8 0
BBX 6 11 1 0
BITMAP
30
48
84
84
84
4C
34
04
08
10
60
ENDCHAR
STARTCHAR colon
ENCODING 58
SWIDTH 320 0
DWIDTH 4 0
BBX 2 7 1 0
BITMAP
C0
C0
00
00
00
C0
C0
ENDCHAR
STARTCHAR semicolon
ENCODING 59
SWIDTH 320 0
DWIDTH 4 0
BBX 2 10 1 -3
BITMAP
C0
80
00
00
00
C0
C0
40
40
80
ENDCHAR
STARTCHAR less
ENCODING 60
SWIDTH 720 0
DWIDTH 9 0
BBX 8 8 1 1
BITMAP
01
06
38
C0
C0
38
06
01
ENDCHAR
STARTCHAR equal
ENCODING 61
SWIDTH 720 0
DWIDTH 9 0
BBX 8 3 1 4
BITMAP
FF
00
FF
ENDCHAR
STARTCHAR greater
ENCODING 62
SWIDTH 720 0
DWIDTH 9 0
BBX 8 8 1 1
BITMAP
80
60
1C
03
03
1C
60
80
ENDCHAR
STARTCHAR question
ENCODING 63
SWIDTH 560 0
DWIDTH 7 0
BBX 5 11 1 0
BITMAP
70
48
98
D8
08
18
10
10
00
30
30
ENDCHAR
STARTCHAR at
ENCODING 64
SWIDTH 1200 0
DWIDTH 15 0
BBX 14 14 1 -3
BITMAP
0780
1860
2010
4348
4488
8888
8888
9110
9310
9D24
49C8
4010
3060
0F80
ENDCHAR
STARTCHAR A
ENCODING 65
SWIDTH 960 0
DWIDTH 12 0
BBX 11 11 0 0
BITMAP
0400
0400
0E00
0A00
1100
1100
3F00
2080
4080
4040
E1E0
ENDCHAR
STARTCHAR B
ENCODING 66
SWIDTH 880 0
DWIDTH 11 0
BBX 10 11 0 0
BITMAP
FC00
2300
2080
2080
2380
3E00
2180
2040
2040
2180
FE00
ENDCHAR
STARTCHAR C
ENCODING 67
SWIDTH 880 0
DWIDTH 11 0
BBX 10 11 1 0
BITMAP
1E80
2180
4080
8040
8000
8000
8000
8000
40C0
2180
1E00
ENDCHAR
STARTCHAR D
ENCODING 68
SWIDTH 960 0
DWIDTH 12 0
BBX 11 11 0 0
BITMAP
FE00
2180
20C0
2040
2020
2020
2020
2020
2040
2180
FF00
ENDCHAR
STARTCHAR E
ENCODING 69
SWIDTH 800 0
DWIDTH 10 0
BBX 10 11 1 0
BITMAP
FF00
4080
4000
4000
4100
7F00
4100
4000
4040
4080
FF80
ENDCHAR
STARTCHAR F
ENCODING 70
SWIDTH 720 0
DWIDTH 9 0
BBX 8 11 1 0
BITMAP
FE
41
40
40
44
7C
44
40
40
40
E0
ENDCHAR
STARTCHAR G
ENCODING 71
SWIDTH 960 0
DWIDTH 12 0
BBX 10 11 1 0
BITMAP
1C80
2380
4080
8000
8000
83C0
8080
8080
4080
6080
3F00
ENDCHAR
STARTCHAR H
ENCODING 72
SWIDTH 960 0
DWIDTH 12 0
BBX 10 11 1 0
BITMAP
E380
4100
4100
4100
4100
7F00
4100
4100
4100
4100
E380
ENDCHAR
STARTCHAR I
ENCODING 73
SWIDTH 400 0
DWIDTH 5 0
BBX 4 11 1 0
BITMAP
E0
40
40
40
40
40
40
40
40
40
E0
ENDCHAR
STARTCHAR J
ENCODING 74
SWIDTH 480 0
DWIDTH 6 0
BBX 5 11 1 0
BITMAP
38
10
10
10
10
10
10
10
10
90
E0
ENDCHAR
STARTCHAR K
ENCODING 75
SWIDTH 960 0
DWIDTH 12 0
BBX 11 11 1 0
BITMAP
E700
4200
4400
4800
5000
7000
4800
4400
4200
4100
E380
ENDCHAR
STARTCHAR L
ENCODING 76
SWIDTH 800 0
DWIDTH 10 0
BBX 10 11 0 0
BITMAP
F800
2000
2000
2000
2000
2000
2000
2000
2040
20C0
FF80
ENDCHAR
STARTCHAR M
ENCODING 77
SWIDTH 1120 0
DWIDTH 14 0
BBX 12 11 1 0
BITMAP
E070
6060
70E0
50A0
50A0
49A0
4920
4920
4F20
4620
E670
ENDCHAR
STARTCHAR N
ENCODING 78
SWIDTH 960 0
DWIDTH 12 0
BBX 11 11 0 0
BITMAP
E0E0
3040
3040
2840
2440
2640
2240
2140
20C0
20C0
7040
ENDCHAR
STARTCHAR O
ENCODING 79
SWIDTH 960 0
DWIDTH 12 0
BBX 10 11 1 0
BITMAP
1E00
2100
4080
8040
8040
8040
8040
8040
4080
2100
1E00
ENDCHAR
STARTCHAR P
ENCODING 80
SWIDTH 720 0
DWIDTH 9 0
BBX 7 11 1 0
BITMAP
F8
44
42
42
44
78
40
40
40
40
E0
ENDCHAR
STARTCHAR Q
ENCODING 81
SWIDTH 960 0
DWIDTH 12 0
BBX 10 13 1 -2
BITMAP
1E00
2100
4080
8040
8040
8040
8040
8040
4080
2900
1E00
0400
0380
ENDCHAR
STARTCHAR R
ENCODING 82
SWIDTH 880 0
DWIDTH 11 0
BBX 9 11 1 0
BITMAP
FC00
4200
4100
4100
4200
7C00
4C00
4200
4100
4100
E180
ENDCHAR
STARTCHAR S
ENCODING 83
SWIDTH 720 0
DWIDTH 9 0
BBX 7 11 1 0
BITMAP
3A
46
82
82
60
38
0C
82
82
C4
B8
ENDCHAR
STARTCHAR T
ENCODING 84
SWIDTH 800 0
DWIDTH 10 0
BBX 10 11 0 0
BITMAP
FF80
8880
0800
0800
0800
0800
0800
0800
0800
0800
1C00
ENDCHAR
STARTCHAR U
ENCODING 85
SWIDTH 960 0
DWIDTH 12 0
BBX 10 11 1 0
BITMAP
E1C0
4080
4080
4080
4080
4080
4080
4080
4080
2100
1E00
ENDCHAR
STARTCHAR V
ENCODING 86
SWIDTH 960 0
DWIDTH 12 0
BBX 11 11 0 0
BITMAP
F0E0
4040
2040
2080
1080
1080
1100
0900
0E00
0400
0400
ENDCHAR
STARTCHAR W
ENCODING 87
SWIDTH 1200 0
DWIDTH 15 0
BBX 15 11 0 0
BITMAP
F78E
6304
2104
2104
2188
1288
12D0
1250
0C60
0C20
0420
ENDCHAR
STARTCHAR X
ENCODING 88
SWIDTH 960 0
DWIDTH 12 0
BBX 11 11 0 0
BITMAP
F9E0
30C0
1980
0B00
0C00
0400
0A00
1300
1180
60C0
F3E0
ENDCHAR
STARTCHAR Y
ENCODING 89
SWIDTH 960 0
DWIDTH 12 0
BBX 11 11 0 0
BITMAP
F9E0
60C0
2080
1100
0900
0E00
0600
0400
0400
0400
0F00
ENDCHAR
STARTCHAR Z
ENCODING 90
SWIDTH 800 0
DWIDTH 10 0
BBX 10 11 0 0
BITMAP
FF80
8300
8200
0600
0C00
0800
1000
3000
6040
4080
FF80
ENDCHAR
STARTCHAR bracketleft
ENCODING 91
SWIDTH 400 0
DWIDTH 5 0
BBX 3 14 1 -3
BITMAP
E0
80
80
80
80
80
80
80
80
80
80
80
80
E0
ENDCHAR
STARTCHAR backslash
ENCODING 92
SWIDTH 320 0
DWIDTH 4 0
BBX 4 11 0 0
BITMAP
80
80
40
40
40
20
20
20
10
10
10
ENDCHAR
STARTCHAR bracketright
ENCODING 93
SWIDTH 400 0
DWIDTH 5 0
BBX 3 14 1 -3
BITMAP
E0
20
20
20
20
20
20
20
20
20
20
20
20
E0
ENDCHAR
STARTCHAR asciicircum
ENCODING 94
SWIDTH 640 0
DWIDTH 8 0
BBX 6 6 1 5
BITMAP
10
30
28
48
44
84
ENDCHAR
STARTCHAR underscore
ENCODING 95
SWIDTH 640 0
DWIDTH 8 0
BBX 8 1 0 -3
BITMAP
FF
ENDCHAR
STARTCHAR grave
ENCODING 96
SWIDTH 400 0
DWIDTH 5 0
BBX 3 3 1 8
BITMAP
C0
40
20
ENDCHAR
STARTCHAR a
ENCODING 97
SWIDTH 560 0
DWIDTH 7 0
BBX 6 7 1 0
BITMAP
70
88
88
78
88
98
EC
ENDCHAR
STARTCHAR b
ENCODING 98
SWIDTH 640 0
DWIDTH 8 0
BBX 7 11 0 0
BITMAP
C0
40
40
40
5C
66
42
42
42
44
38
ENDCHAR
STARTCHAR c
ENCODING 99
SWIDTH 560 0
DWIDTH 7 0
BBX 6 7 1 0
BITMAP
70
58
88
80
84
48
70
ENDCHAR
STARTCHAR d
ENCODING 100
SWIDTH 640 0
DWIDTH 8 0
BBX 7 11 1 0
BITMAP
0C
04
04
04
3C
44
84
84
84
44
3E
ENDCHAR
STARTCHAR e
ENCODING 101
SWIDTH 560 0
DWIDTH 7 0
BBX 7 7 1 0
BITMAP
38
44
FC
80
82
44
38
ENDCHAR
STARTCHAR f
ENCODING 102
SWIDTH 400 0
DWIDTH 5 0
BBX 6 11 1 0
BITMAP
38
24
40
40
F8
40
40
40
40
40
F0
ENDCHAR
STARTCHAR g
ENCODING 103
SWIDTH 640 0
DWIDTH 8 0
BBX 7 10 1 -3
BITMAP
7E
84
84
C4
78
80
FC
82
86
78
ENDCHAR
STARTCHAR h
ENCODING 104
SWIDTH 640 0
DWIDTH 8 0
BBX 8 11 0 0
BITMAP
C0
40
40
4C
72
42
42
42
42
42
E7
ENDCHAR
STARTCHAR i
ENCODING 105
SWIDTH 320 0
DWIDTH 4 0
BBX 3 11 1 0
BITMAP
C0
40
00
00
C0
40
40
40
40
C0
E0
ENDCHAR
STARTCHAR j
ENCODING 106
SWIDTH 320 0
DWIDTH 4 0
BBX 4 14 -1 -3
BITMAP
10
30
00
00
70
10
10
10
10
10
10
10
A0
C0
ENDCHAR
STARTCHAR k
ENCODING 107
SWIDTH 640 0
DWIDTH 8 0
BBX 8 11 0 0
BITMAP
C0
40
40
40
47
44
58
70
4C
46
E7
ENDCHAR
STARTCHAR l
ENCODING 108
SWIDTH 320 0
DWIDTH 4 0
BBX 3 11 1 0
BITMAP
C0
40
40
40
40
40
40
40
40
40
E0
ENDCHAR
STARTCHAR m
ENCODING 109
SWIDTH 960 0
DWIDTH 12 0
BBX 12 7 0 0
BITMAP
DCC0
6320
4220
4220
4220
4220
E770
ENDCHAR
STARTCHAR n
ENCODING 110
SWIDTH 640 0
DWIDTH 8 0
BBX 8 7 0 0
BITMAP
DC
62
42
42
42
42
E7
ENDCHAR
STARTCHAR o
ENCODING 111
SWIDTH 640 0
DWIDTH 8 0
BBX 6 7 1 0
BITMAP
30
48
84
84
84
48
30
ENDCHAR
STARTCHAR p
ENCODING 112
SWIDTH 640 0
DWIDTH 8 0
BBX 8 10 -1 -3
BITMAP
EE
33
21
21
21
32
2C
20
20
F8
ENDCHAR
STARTCHAR q
ENCODING 113
SWIDTH 640 0
DWIDTH 8 0
BBX 7 10 1 -3
BITMAP
3C
44
84
84
84
CC
74
04
04
0E
ENDCHAR
STARTCHAR r
ENCODING 114
SWIDTH 400 0
DWIDTH 5 0
BBX 5 7 0 0
BITMAP
58
E8
40
40
40
40
F0
ENDCHAR
STARTCHAR s
ENCODING 115
SWIDTH 480 0
DWIDTH 6 0
BBX 5 7 1 0
BITMAP
78
88
C0
70
18
88
F0
ENDCHAR
STARTCHAR t
ENCODING 116
SWIDTH 320 0
DWIDTH 4 0
BBX 4 10 0 0
BITMAP
20
40
40
F0
40
40
40
40
40
70
ENDCHAR
STARTCHAR u
ENCODING 117
SWIDTH 640 0
DWIDTH 8 0
BBX 8 7 0 0
BITMAP
C6
42
42
42
42
46
3B
ENDCHAR
STARTCHAR v
ENCODING 118
SWIDTH 640 0
DWIDTH 8 0
BBX 8 7 0 0
BITMAP
E3
41
62
22
34
18
10
ENDCHAR
STARTCHAR w
ENCODING 119
SWIDTH 960 0
DWIDTH 12 0
BBX 11 7 0 0
BITMAP
EE60
4420
6640
2640
3B80
1100
1100
ENDCHAR
STARTCHAR x
ENCODING 120
SWIDTH 640 0
DWIDTH 8 0
BBX 8 7 0 0
BITMAP
E6
64
38
38
2C
46
C7
ENDCHAR
STARTCHAR y
ENCODING 121
SWIDTH 640 0
DWIDTH 8 0
BBX 8 10 0 -3
BITMAP
E3
41
62
24
14
18
08
10
E0
40
ENDCHAR
STARTCHAR z
ENCODING 122
SWIDTH 560 0
DWIDTH 7 0
BBX 7 7 1 0
BITMAP
FC
88
18
30
60
42
FC
ENDCHAR
STARTCHAR braceleft
ENCODING 123
SWIDTH 640 0
DWIDTH 8 0
BBX 4 14 2 -3
BITMAP
10
10
20
20
20
20
C0
40
20
20
20
20
10
10
ENDCHAR
STARTCHAR bar
ENCODING 124
SWIDTH 240 0
DWIDTH 3 0
BBX 1 14 1 -3
BITMAP
80
80
80
80
80
80
80
80
80
80
80
80
80
80
ENDCHAR
STARTCHAR braceright
ENCODING 125
SWIDTH 640 0
DWIDTH 8 0
BBX 4 14 2 -3
BITMAP
80
40
40
40
40
40
30
20
40
40
40
40
40
80
ENDCHAR
STARTCHAR asciitilde
ENCODING 126
SWIDTH 720 0
DWIDTH 9 0
BBX 9 2 0 3
BITMAP
F080
8F00
ENDCHAR
STARTCHAR C001122
ENCODING 133
SWIDTH 1280 0
DWIDTH 16 0
BBX 12 2 2 0
BITMAP
C630
C630
ENDCHAR
STARTCHAR C001107
ENCODING 145
SWIDTH 400 0
DWIDTH 5 0
BBX 3 4 1 7
BITMAP
60
80
E0
60
ENDCHAR
STARTCHAR C001110
ENCODING 146
SWIDTH 400 0
DWIDTH 5 0
BBX 2 4 2 7
BITMAP
80
C0
40
80
ENDCHAR
STARTCHAR C001113
ENCODING 147
SWIDTH 560 0
DWIDTH 7 0
BBX 6 4 1 7
BITMAP
4C
90
DC
4C
ENDCHAR
STARTCHAR C001114
ENCODING 148
SWIDTH 560 0
DWIDTH 7 0
BBX 6 4 1 8
BITMAP
88
DC
44
88
ENDCHAR
STARTCHAR C001121
ENCODING 149
SWIDTH 480 0
DWIDTH 6 0
BBX 4 4 1 3
BITMAP
60
F0
F0
60
ENDCHAR
STARTCHAR C001103
ENCODING 150
SWIDTH 640 0
DWIDTH 8 0
BBX 8 1 0 4
BITMAP
FF
ENDCHAR
STARTCHAR C001104
ENCODING 151
SWIDTH 1280 0
DWIDTH 16 0
BBX 16 1 0 4
BITMAP
FFFF
ENDCHAR
STARTCHAR exclamdown
ENCODING 161
SWIDTH 800 0
DWIDTH 10 0
BBX 7 10 1 0
BITMAP
38
44
82
E2
42
42
42
42
42
42
ENDCHAR
STARTCHAR cent
ENCODING 162
SWIDTH 800 0
DWIDTH 10 0
BBX 7 10 1 0
BITMAP
62
92
D2
B2
52
12
12
12
12
0C
ENDCHAR
STARTCHAR sterling
ENCODING 163
SWIDTH 880 0
DWIDTH 11 0
BBX 8 10 1 0
BITMAP
51
A9
89
C9
A9
49
09
09
09
06
ENDCHAR
STARTCHAR currency
ENCODING 164
SWIDTH 800 0
DWIDTH 10 0
BBX 7 10 1 0
BITMAP
38
44
82
B2
CA
72
42
42
42
42
ENDCHAR
STARTCHAR yen
ENCODING 165
SWIDTH 800 0
DWIDTH 10 0
BBX 7 10 1 0
BITMAP
24
5A
82
B2
CA
72
42
42
42
42
ENDCHAR
STARTCHAR brokenbar
ENCODING 166
SWIDTH 960 0
DWIDTH 12 0
BBX 9 10 1 0
BITMAP
5080
A880
8880
C880
A880
4880
0880
1E80
2980
1880
ENDCHAR
STARTCHAR section
ENCODING 167
SWIDTH 640 0
DWIDTH 8 0
BBX 5 10 1 0
BITMAP
10
28
28
18
08
88
48
28
18
08
ENDCHAR
STARTCHAR diaeresis
ENCODING 168
SWIDTH 720 0
DWIDTH 9 0
BBX 6 10 1 0
BITMAP
70
88
04
44
A4
64
24
24
24
18
ENDCHAR
STARTCHAR copyright
ENCODING 169
SWIDTH 800 0
DWIDTH 10 0
BBX 8 10 1 0
BITMAP
38
C4
02
42
A2
62
2E
35
25
22
ENDCHAR
STARTCHAR ordfeminine
ENCODING 170
SWIDTH 800 0
DWIDTH 10 0
BBX 8 10 1 0
BITMAP
61
92
DC
B6
52
12
12
12
16
3C
ENDCHAR
STARTCHAR guillemotleft
ENCODING 171
SWIDTH 880 0
DWIDTH 11 0
BBX 9 10 1 0
BITMAP
5080
7980
A900
8E00
A900
6900
0900
0900
0B00
1E00
ENDCHAR
STARTCHAR notsign
ENCODING 172
SWIDTH 960 0
DWIDTH 12 0
BBX 10 10 1 0
BITMAP
3840
4440
8240
E240
4240
4240
4240
6740
5AC0
2440
ENDCHAR
STARTCHAR hyphen
ENCODING 173
SWIDTH 1040 0
DWIDTH 13 0
BBX 11 14 1 -4
BITMAP
3840
4440
8240
E240
4240
4240
4240
6240
5240
2180
0000
0240
0540
0380
ENDCHAR
STARTCHAR registered
ENCODING 174
SWIDTH 800 0
DWIDTH 10 0
BBX 8 15 1 -5
BITMAP
3C
42
81
F1
41
41
41
C1
A1
C9
09
31
5D
73
01
ENDCHAR
STARTCHAR macron
ENCODING 175
SWIDTH 800 0
DWIDTH 10 0
BBX 8 15 1 -5
BITMAP
3C
46
41
F1
41
41
41
41
A1
49
11
31
71
2F
01
ENDCHAR
STARTCHAR degree
ENCODING 176
SWIDTH 720 0
DWIDTH 9 0
BBX 7 14 1 -4
BITMAP
7A
84
78
44
A4
64
24
24
24
18
00
4C
D4
28
ENDCHAR
STARTCHAR plusminus
ENCODING 177
SWIDTH 1040 0
DWIDTH 13 0
BBX 10 10 1 0
BITMAP
5980
6940
AA40
CA40
AA40
4C40
0C40
0C40
0840
0840
ENDCHAR
STARTCHAR twosuperior
ENCODING 178
SWIDTH 1040 0
DWIDTH 13 0
BBX 10 10 1 0
BITMAP
2C40
5640
8240
9240
AA40
5240
6240
4F40
4AC0
4440
ENDCHAR
STARTCHAR threesuperior
ENCODING 179
SWIDTH 1040 0
DWIDTH 13 0
BBX 11 10 1 0
BITMAP
3040
4840
8440
E440
4440
4440
4440
65C0
56A0
2440
ENDCHAR
STARTCHAR acute
ENCODING 180
SWIDTH 800 0
DWIDTH 10 0
BBX 7 10 1 0
BITMAP
38
44
82
92
AA
9A
52
62
42
42
ENDCHAR
STARTCHAR mu
ENCODING 181
SWIDTH 800 0
DWIDTH 10 0
BBX 7 10 1 0
BITMAP
28
54
82
92
AA
9A
52
62
42
42
ENDCHAR
STARTCHAR paragraph
ENCODING 182
SWIDTH 800 0
DWIDTH 10 0
BBX 7 10 1 0
BITMAP
38
44
82
E2
42
42
42
62
52
22
ENDCHAR
STARTCHAR periodcentered
ENCODING 183
SWIDTH 880 0
DWIDTH 11 0
BBX 8 10 1 0
BITMAP
46
A9
A9
69
29
31
31
31
21
21
ENDCHAR
STARTCHAR cedilla
ENCODING 184
SWIDTH 720 0
DWIDTH 9 0
BBX 7 10 1 0
BITMAP
72
AC
E0
3C
24
24
24
24
24
78
ENDCHAR
STARTCHAR onesuperior
ENCODING 185
SWIDTH 880 0
DWIDTH 11 0
BBX 9 10 1 0
BITMAP
4100
A100
6100
2100
2100
2100
2100
2F00
3280
2100
ENDCHAR
STARTCHAR masculine
ENCODING 186
SWIDTH 880 0
DWIDTH 11 0
BBX 9 10 1 0
BITMAP
4080
A080
6080
2080
2080
2080
2080
2080
2080
7F00
ENDCHAR
STARTCHAR guillemotright
ENCODING 187
SWIDTH 880 0
DWIDTH 11 0
BBX 9 16 1 0
BITMAP
0080
0080
0080
0080
0080
0080
4080
A080
6080
2080
2080
2080
2080
2080
2080
7F00
ENDCHAR
STARTCHAR onequarter
ENCODING 188
SWIDTH 800 0
DWIDTH 10 0
BBX 7 10 1 0
BITMAP
42
A2
C2
82
82
92
AA
C6
82
82
ENDCHAR
STARTCHAR onehalf
ENCODING 189
SWIDTH 800 0
DWIDTH 10 0
BBX 7 16 1 0
BITMAP
02
02
02
02
02
02
42
A2
C2
82
82
92
AA
C6
82
82
ENDCHAR
STARTCHAR threequarters
ENCODING 190
SWIDTH 880 0
DWIDTH 11 0
BBX 9 10 1 0
BITMAP
4480
A480
6A80
2A80
2A80
3180
3180
3180
2080
2080
ENDCHAR
STARTCHAR questiondown
ENCODING 191
SWIDTH 880 0
DWIDTH 11 0
BBX 9 16 1 0
BITMAP
0080
0080
0080
0080
0080
0080
4480
A480
6A80
2A80
2A80
3180
3180
3180
2080
2080
ENDCHAR
STARTCHAR Agrave
ENCODING 192
SWIDTH 800 0
DWIDTH 10 0
BBX 8 10 1 0
BITMAP
3C
46
81
F1
41
41
41
41
A1
41
ENDCHAR
STARTCHAR Aacute
ENCODING 193
SWIDTH 800 0
DWIDTH 10 0
BBX 8 10 1 0
BITMAP
41
A1
A1
E1
21
21
21
61
B9
67
ENDCHAR
STARTCHAR Acircumflex
ENCODING 194
SWIDTH 640 0
DWIDTH 8 0
BBX 6 10 1 0
BITMAP
44
A4
C4
84
64
84
84
84
8C
78
ENDCHAR
STARTCHAR Atilde
ENCODING 195
SWIDTH 640 0
DWIDTH 8 0
BBX 7 10 1 0
BITMAP
62
9C
C0
38
08
08
08
38
48
30
ENDCHAR
STARTCHAR Adiaeresis
ENCODING 196
SWIDTH 800 0
DWIDTH 10 0
BBX 7 14 1 -4
BITMAP
38
44
82
E2
42
42
42
62
52
22
02
02
02
02
ENDCHAR
STARTCHAR Aring
ENCODING 197
SWIDTH 800 0
DWIDTH 10 0
BBX 7 10 1 0
BITMAP
78
84
3A
66
42
42
42
62
52
22
ENDCHAR
STARTCHAR AE
ENCODING 198
SWIDTH 800 0
DWIDTH 10 0
BBX 8 14 1 -4
BITMAP
3C
46
81
E1
41
41
41
41
A1
41
01
01
01
01
ENDCHAR
STARTCHAR Ccedilla
ENCODING 199
SWIDTH 720 0
DWIDTH 9 0
BBX 6 10 1 0
BITMAP
70
88
84
04
04
04
04
1C
24
18
ENDCHAR
STARTCHAR Egrave
ENCODING 200
SWIDTH 800 0
DWIDTH 10 0
BBX 8 11 1 0
BITMAP
01
39
4D
86
B6
CA
72
42
42
42
42
ENDCHAR
STARTCHAR Eacute
ENCODING 201
SWIDTH 880 0
DWIDTH 11 0
BBX 8 10 1 0
BITMAP
41
A1
61
21
39
33
2D
21
21
7E
ENDCHAR
STARTCHAR Ecircumflex
ENCODING 202
SWIDTH 880 0
DWIDTH 11 0
BBX 9 11 1 0
BITMAP
0080
3C80
C300
BD00
6300
4100
4100
4100
7100
4900
3100
ENDCHAR
STARTCHAR Ediaeresis
ENCODING 203
SWIDTH 880 0
DWIDTH 11 0
BBX 9 10 1 0
BITMAP
4100
A280
6300
2500
2900
3100
2100
2100
2100
2100
ENDCHAR
STARTCHAR Igrave
ENCODING 204
SWIDTH 880 0
DWIDTH 11 0
BBX 10 10 1 0
BITMAP
41C0
A740
4880
4C80
5280
5280
5280
6180
6180
4080
ENDCHAR
STARTCHAR Iacute
ENCODING 205
SWIDTH 800 0
DWIDTH 10 0
BBX 7 10 1 0
BITMAP
38
44
A2
52
52
62
42
42
26
38
ENDCHAR
STARTCHAR Icircumflex
ENCODING 206
SWIDTH 720 0
DWIDTH 9 0
BBX 6 10 1 0
BITMAP
74
8C
8C
74
64
94
E4
84
84
78
ENDCHAR
STARTCHAR Idiaeresis
ENCODING 207
SWIDTH 800 0
DWIDTH 10 0
BBX 7 10 1 0
BITMAP
0E
0A
6A
8A
92
62
02
02
02
02
ENDCHAR
STARTCHAR ETH
ENCODING 208
SWIDTH 720 0
DWIDTH 9 0
BBX 7 8 1 1
BITMAP
62
92
7C
00
00
62
92
7C
ENDCHAR
STARTCHAR Ntilde
ENCODING 209
SWIDTH 0 0
DWIDTH 0 0
BBX 7 3 -6 12
BITMAP
62
94
78
ENDCHAR
STARTCHAR Ograve
ENCODING 210
SWIDTH 560 0
DWIDTH 7 0
BBX 5 10 1 0
BITMAP
70
98
08
08
08
08
08
08
08
08
ENDCHAR
STARTCHAR Oacute
ENCODING 211
SWIDTH 560 0
DWIDTH 7 0
BBX 10 16 -4 0
BITMAP
6000
9000
9000
6000
0000
0000
0380
04C0
0040
0040
0040
0040
0040
0040
0040
0040
ENDCHAR
STARTCHAR Ocircumflex
ENCODING 212
SWIDTH 0 0
DWIDTH 0 0
BBX 7 4 -8 12
BITMAP
38
C6
FA
06
ENDCHAR
STARTCHAR Otilde
ENCODING 213
SWIDTH 0 0
DWIDTH 0 0
BBX 8 5 -9 11
BITMAP
02
3E
42
FD
02
ENDCHAR
STARTCHAR Odiaeresis
ENCODING 214
SWIDTH 0 0
DWIDTH 0 0
BBX 8 5 -8 12
BITMAP
02
3D
C2
FD
07
ENDCHAR
STARTCHAR multiply
ENCODING 215
SWIDTH 0 0
DWIDTH 0 0
BBX 7 6 -8 11
BITMAP
0A
3A
46
82
FE
02
ENDCHAR
STARTCHAR Ooblique
ENCODING 216
SWIDTH 0 0
DWIDTH 0 0
BBX 4 4 -5 -5
BITMAP
70
F0
10
10
ENDCHAR
STARTCHAR Ugrave
ENCODING 217
SWIDTH 0 0
DWIDTH 0 0
BBX 6 4 -7 -5
BITMAP
F4
74
14
1C
ENDCHAR
STARTCHAR Uacute
ENCODING 218
SWIDTH 0 0
DWIDTH 0 0
BBX 2 2 -3 -3
BITMAP
C0
C0
ENDCHAR
STARTCHAR Ucircumflex
ENCODING 219
SWIDTH 400 0
DWIDTH 5 0
BBX 0 0 0 0
BITMAP
ENDCHAR
STARTCHAR Udiaeresis
ENCODING 220
SWIDTH 400 0
DWIDTH 5 0
BBX 5 2 0 -2
BITMAP
F8
88
ENDCHAR
STARTCHAR ssharp
ENCODING 223
SWIDTH 880 0
DWIDTH 11 0
BBX 10 13 0 -1
BITMAP
0400
FE00
2500
2480
2480
2580
3F00
2580
2440
2440
2580
FF00
0400
ENDCHAR
STARTCHAR agrave
ENCODING 224
SWIDTH 320 0
DWIDTH 4 0
BBX 3 10 1 0
BITMAP
80
80
80
80
80
80
80
E0
A0
40
ENDCHAR
STARTCHAR aacute
ENCODING 225
SWIDTH 720 0
DWIDTH 9 0
BBX 8 10 1 0
BITMAP
84
84
84
84
84
84
84
C6
A5
42
ENDCHAR
STARTCHAR acircumflex
ENCODING 226
SWIDTH 640 0
DWIDTH 8 0
BBX 6 16 1 0
BITMAP
70
9C
60
18
08
08
08
08
08
08
08
08
08
0C
14
08
ENDCHAR
STARTCHAR atilde
ENCODING 227
SWIDTH 560 0
DWIDTH 7 0
BBX 6 16 1 0
BITMAP
20
F0
B0
B0
70
10
10
10
10
10
10
10
10
1C
24
18
ENDCHAR
STARTCHAR adiaeresis
ENCODING 228
SWIDTH 640 0
DWIDTH 8 0
BBX 6 17 1 0
BITMAP
80
98
A8
A8
A8
48
08
08
08
08
08
08
08
08
0C
14
08
ENDCHAR
STARTCHAR aring
ENCODING 229
SWIDTH 560 0
DWIDTH 7 0
BBX 5 14 1 -4
BITMAP
70
88
08
08
08
08
08
08
08
08
08
08
08
08
ENDCHAR
STARTCHAR ae
ENCODING 230
SWIDTH 800 0
DWIDTH 10 0
BBX 7 13 1 -3
BITMAP
2C
52
82
A2
A2
62
02
02
02
02
02
02
02
ENDCHAR
STARTCHAR ccedilla
ENCODING 231
SWIDTH 0 0
DWIDTH 0 0
BBX 7 7 -8 11
BITMAP
02
02
7C
C0
86
B2
4C
ENDCHAR
STARTCHAR egrave
ENCODING 232
SWIDTH 0 0
DWIDTH 0 0
BBX 1 3 -3 17
BITMAP
80
80
80
ENDCHAR
STARTCHAR eacute
ENCODING 233
SWIDTH 0 0
DWIDTH 0 0
BBX 5 5 -4 18
BITMAP
08
48
A8
38
E0
ENDCHAR
STARTCHAR ecircumflex
ENCODING 234
SWIDTH 0 0
DWIDTH 0 0
BBX 6 5 -6 18
BITMAP
04
54
AC
A8
78
ENDCHAR
STARTCHAR ediaeresis
ENCODING 235
SWIDTH 0 0
DWIDTH 0 0
BBX 5 5 -5 17
BITMAP
20
20
F8
20
20
ENDCHAR
STARTCHAR igrave
ENCODING 236
SWIDTH 0 0
DWIDTH 0 0
BBX 4 5 -2 16
BITMAP
10
30
40
A0
40
ENDCHAR
STARTCHAR iacute
ENCODING 237
SWIDTH 0 0
DWIDTH 0 0
BBX 4 4 -5 11
BITMAP
60
90
90
60
ENDCHAR
STARTCHAR icircumflex
ENCODING 238
SWIDTH 0 0
DWIDTH 0 0
BBX 4 5 -4 12
BITMAP
70
80
40
80
C0
ENDCHAR
STARTCHAR idiaeresis
ENCODING 239
SWIDTH 800 0
DWIDTH 10 0
BBX 8 8 1 0
BITMAP
3C
42
99
BD
BD
99
42
3C
ENDCHAR
STARTCHAR eth
ENCODING 240
SWIDTH 800 0
DWIDTH 10 0
BBX 7 7 1 0
BITMAP
38
44
82
82
82
44
38
ENDCHAR
STARTCHAR ntilde
ENCODING 241
SWIDTH 800 0
DWIDTH 10 0
BBX 7 7 1 0
BITMAP
78
44
82
B2
BA
DC
24
ENDCHAR
STARTCHAR ograve
ENCODING 242
SWIDTH 1120 0
DWIDTH 14 0
BBX 12 11 1 0
BITMAP
8000
4000
4000
4000
4E70
5990
5290
5690
4E90
4020
3FC0
ENDCHAR
STARTCHAR oacute
ENCODING 243
SWIDTH 960 0
DWIDTH 12 0
BBX 10 7 1 0
BITMAP
3980
46C0
C240
8240
B240
7680
2C80
ENDCHAR
STARTCHAR ocircumflex
ENCODING 244
SWIDTH 1040 0
DWIDTH 13 0
BBX 10 11 1 0
BITMAP
0040
0040
0180
0E00
3000
6600
CF00
CB00
CC00
6700
38C0
ENDCHAR
STARTCHAR otilde
ENCODING 245
SWIDTH 1040 0
DWIDTH 13 0
BBX 10 11 1 0
BITMAP
0040
0E40
12C0
1B80
0F00
3800
6380
8380
8200
C180
7FC0
ENDCHAR
STARTCHAR odiaeresis
ENCODING 246
SWIDTH 800 0
DWIDTH 10 0
BBX 8 11 1 0
BITMAP
80
40
20
20
3C
66
03
61
61
26
1C
ENDCHAR
STARTCHAR division
ENCODING 247
SWIDTH 1040 0
DWIDTH 13 0
BBX 11 11 1 0
BITMAP
0100
01C0
0040
0060
3720
CDA0
84A0
80A0
98C0
59C0
3100
ENDCHAR
STARTCHAR oslash
ENCODING 248
SWIDTH 960 0
DWIDTH 12 0
BBX 10 11 1 0
BITMAP
0040
0040
0040
0040
3C80
6380
C000
8000
B980
6C80
2380
ENDCHAR
STARTCHAR ugrave
ENCODING 249
SWIDTH 800 0
DWIDTH 10 0
BBX 8 11 1 0
BITMAP
03
06
7C
40
60
3C
60
8C
8C
44
38
ENDCHAR
STARTCHAR uacute
ENCODING 250
SWIDTH 960 0
DWIDTH 12 0
BBX 10 10 0 0
BITMAP
0740
0540
6540
D940
8940
7140
0140
0140
0140
0140
ENDCHAR
STARTCHAR ucircumflex
ENCODING 251
SWIDTH 1600 0
DWIDTH 20 0
BBX 18 9 1 0
BITMAP
3C0000
420000
800000
800000
812440
81DA40
C24980
660000
3C0000
ENDCHAR
STARTCHAR udiaeresis
ENCODING 252
SWIDTH 0 0
DWIDTH 0 0
BBX 4 4 -5 -10
BITMAP
70
F0
10
10
ENDCHAR
STARTCHAR yacute
ENCODING 253
SWIDTH 0 0
DWIDTH 0 0
BBX 6 5 -7 -10
BITMAP
60
94
74
14
1C
ENDCHAR
STARTCHAR thorn
ENCODING 254
SWIDTH 0 0
DWIDTH 0 0
BBX 2 2 -3 -8
BITMAP
C0
C0
ENDCHAR
ENDFONT
